<?xml version="1.0" standalone="no"?>
<!DOCTYPE svg PUBLIC "-//W3C//DTD SVG 20010904//EN"
 "http://www.w3.org/TR/2001/REC-SVG-20010904/DTD/svg10.dtd">
<svg version="1.0" xmlns="http://www.w3.org/2000/svg"
 width="577.000000pt" height="577.000000pt" viewBox="0 0 577.000000 577.000000"
 preserveAspectRatio="xMidYMid meet">

<g transform="translate(0.000000,577.000000) scale(0.100000,-0.100000)"
fill="#000000" stroke="none">
<path d="M0 2885 l0 -2885 2885 0 2885 0 0 2885 0 2885 -2885 0 -2885 0 0
-2885z m3670 841 c193 -24 470 -83 760 -163 428 -118 455 -127 557 -184 183
-104 338 -316 394 -539 17 -71 18 -279 1 -350 -78 -320 -317 -561 -631 -636
-149 -36 -384 -14 -503 47 -293 149 -751 604 -1004 995 -238 370 -294 649
-151 758 104 80 303 104 577 72z m-1069 -10 c81 -15 161 -50 196 -88 53 -56
69 -169 42 -298 -11 -56 -73 -218 -111 -294 -69 -138 -284 -463 -368 -556 -22
-25 -55 -64 -73 -87 -58 -76 -360 -368 -452 -436 -179 -134 -308 -181 -500
-181 -233 1 -420 77 -581 238 -105 105 -173 214 -212 346 -44 146 -49 265 -17
422 49 242 237 473 469 578 92 42 631 210 856 268 344 89 586 117 751 88z"/>
<path d="M3106 3604 c-19 -18 -19 -20 -6 -45 13 -23 52 -25 70 -4 10 12 10 21
2 40 -13 29 -43 33 -66 9z"/>
<path d="M3920 3592 c-23 -4 -24 -5 -5 -13 13 -6 2 -7 -30 -3 -38 4 -46 3 -35
-6 12 -8 9 -9 -12 -4 -16 3 -40 0 -59 -10 -18 -9 -36 -16 -42 -16 -5 0 -25
-10 -44 -21 -26 -16 -31 -24 -21 -30 18 -12 71 -11 64 0 -3 5 -15 7 -26 4 -11
-3 -20 0 -20 6 0 12 0 12 53 15 20 2 37 -1 37 -6 0 -4 -4 -8 -10 -8 -5 0 -10
-5 -10 -11 0 -8 4 -8 13 -2 6 6 25 13 42 17 29 7 29 7 11 -13 -11 -12 -31 -21
-47 -21 -29 0 -39 -13 -31 -42 2 -10 10 -14 19 -11 12 5 12 7 1 14 -18 11 4
32 28 27 35 -6 27 -35 -13 -51 -36 -15 -36 -16 -10 -16 15 -1 27 3 27 8 0 5
14 9 31 9 l31 -1 -38 -19 c-21 -10 -47 -16 -58 -12 -14 3 -17 2 -8 -4 19 -13
-59 -63 -87 -55 -13 3 -21 1 -21 -7 0 -7 7 -10 15 -6 20 7 19 1 -4 -26 -11
-13 -29 -34 -41 -47 -27 -32 -60 -140 -67 -217 -8 -93 28 -244 65 -267 6 -4
12 -13 12 -20 0 -13 106 -127 118 -127 5 0 20 -6 35 -12 27 -13 36 -28 17 -28
-5 0 -10 -7 -10 -15 0 -8 5 -15 10 -15 6 0 10 -4 10 -10 0 -5 -7 -10 -16 -10
-11 0 -14 -5 -10 -16 3 -9 6 -17 6 -18 0 -1 55 -1 123 0 116 2 157 -5 157 -26
0 -6 -13 -10 -30 -10 -16 0 -30 5 -30 10 0 6 -8 10 -17 9 -11 0 -13 -3 -5 -6
6 -2 12 -12 12 -20 0 -12 -5 -13 -22 -7 -13 4 -64 8 -114 8 -71 1 -96 5 -119
20 -27 18 -28 20 -10 26 11 4 23 6 26 4 13 -7 16 32 4 43 -16 15 -28 4 -14
-13 7 -9 0 -14 -30 -19 -52 -9 -55 -9 -59 4 -2 6 7 11 20 12 15 0 18 3 8 6 -8
3 -18 11 -22 17 -5 7 -8 4 -8 -6 0 -10 -4 -18 -10 -18 -5 0 -10 5 -10 10 0 16
-17 12 -24 -6 -7 -18 10 -44 28 -44 6 0 2 7 -8 15 -11 8 -16 18 -13 22 8 8 37
-28 31 -38 -5 -9 101 -64 149 -77 28 -8 36 -8 30 1 -3 7 2 5 13 -5 11 -9 46
-19 84 -22 114 -12 325 30 288 57 -9 6 -5 7 11 3 14 -3 41 4 65 16 37 19 39
22 21 30 -18 7 -17 8 3 4 27 -5 47 8 123 86 60 62 125 170 113 190 -4 7 -3 8
4 4 7 -4 12 -1 12 8 0 8 3 22 7 32 4 12 3 15 -5 10 -9 -5 -10 5 -6 38 6 38 4
46 -9 46 -9 0 -23 -10 -31 -22 -14 -19 -14 -24 -1 -38 19 -21 19 -36 0 -20
-15 13 -59 4 -50 -10 3 -5 11 -8 18 -6 7 1 9 1 5 -1 -5 -3 -8 -11 -8 -19 0
-17 -17 -19 -23 -1 -3 7 -6 5 -6 -5 -1 -22 -31 -24 -31 -3 0 8 -9 15 -20 15
-22 0 -25 -12 -10 -41 8 -14 17 -18 35 -13 15 4 25 2 25 -5 0 -6 5 -11 10 -11
6 0 10 6 10 13 0 8 11 24 25 37 14 13 25 18 25 12 0 -6 -10 -18 -22 -26 -17
-12 -22 -26 -23 -65 -1 -58 -7 -67 -32 -52 -16 9 -16 10 -1 11 9 0 20 5 24 12
5 7 1 9 -13 6 -17 -5 -19 -2 -15 16 5 20 5 20 -11 4 -12 -12 -15 -25 -11 -48
5 -23 3 -30 -7 -28 -8 2 -16 6 -19 9 -3 4 -17 -6 -31 -22 -23 -25 -25 -31 -13
-46 13 -17 13 -17 14 0 0 9 3 17 8 18 4 0 17 2 29 3 18 2 20 0 11 -11 -9 -11
-13 -11 -19 -1 -5 8 -11 4 -19 -14 -8 -17 -26 -30 -54 -39 -52 -16 -51 -16
-36 -34 7 -8 8 -15 2 -15 -15 0 -19 19 -17 73 1 37 -2 47 -15 47 -35 0 -39 22
-9 48 35 29 50 23 20 -9 -11 -12 -18 -25 -15 -28 10 -10 44 40 44 65 0 14 7
27 15 30 8 4 15 10 15 16 0 5 11 21 25 35 13 15 27 40 30 55 4 15 10 28 15 28
4 0 11 19 15 41 5 29 13 43 26 46 10 3 19 12 19 20 0 9 -6 13 -15 9 -11 -4
-15 2 -15 21 0 25 1 26 14 8 8 -11 19 -16 30 -12 10 4 15 3 11 -3 -9 -15 11
-12 23 3 12 14 20 107 10 107 -5 0 -8 -14 -8 -31 0 -17 -4 -28 -10 -24 -21 13
-10 51 18 66 15 8 30 18 34 24 5 6 8 6 8 -1 0 -6 -3 -14 -7 -17 -11 -11 -14
-77 -4 -77 5 0 11 15 13 33 2 17 4 -2 4 -43 0 -41 6 -88 14 -105 13 -29 14
-28 22 50 5 48 4 106 -2 146 -13 85 -66 218 -106 263 -17 19 -30 37 -28 39 5
5 -102 107 -111 107 -4 0 -5 -7 -1 -15 3 -8 3 -15 0 -15 -2 0 -9 11 -14 24
-11 29 -125 87 -205 105 -56 13 -177 20 -215 13z m355 -82 c10 -11 14 -20 8
-20 -5 0 -18 9 -28 20 -10 11 -14 20 -8 20 5 0 18 -9 28 -20z m-405 -35 c-11
-13 -10 -18 6 -30 23 -17 34 -19 34 -5 0 6 -4 10 -10 10 -5 0 -10 5 -10 10 0
18 22 10 27 -9 4 -16 9 -18 29 -10 24 8 98 -1 111 -15 6 -6 -119 -10 -162 -6
-11 1 -25 8 -31 16 -6 8 -18 14 -27 14 -9 0 -19 5 -22 10 -3 6 3 10 14 10 12
0 21 5 21 10 0 6 7 10 16 10 14 0 14 -3 4 -15z m450 11 c0 -2 -7 -9 -15 -16
-13 -11 -14 -10 -9 4 5 14 24 23 24 12z m-230 -56 c0 -5 -2 -10 -4 -10 -3 0
-8 5 -11 10 -3 6 -1 10 4 10 6 0 11 -4 11 -10z m110 0 c0 -5 -2 -10 -4 -10 -3
0 -8 5 -11 10 -3 6 -1 10 4 10 6 0 11 -4 11 -10z m-75 -18 c-3 -3 -11 0 -18 7
-9 10 -8 11 6 5 10 -3 15 -9 12 -12z m235 8 c0 -5 -4 -10 -10 -10 -5 0 -10 5
-10 10 0 6 5 10 10 10 6 0 10 -4 10 -10z m-113 -6 c-3 -3 -12 -4 -19 -1 -8 3
-5 6 6 6 11 1 17 -2 13 -5z m76 -9 c-3 -9 -8 -14 -10 -11 -3 3 -2 9 2 15 9 16
15 13 8 -4z m-123 -17 c0 -10 -31 -10 -48 0 -8 6 -2 9 18 9 16 0 30 -4 30 -9z
m160 2 c0 -5 -5 -10 -11 -10 -5 0 -7 5 -4 10 3 6 8 10 11 10 2 0 4 -4 4 -10z
m-110 -4 c0 -2 -7 -6 -15 -10 -8 -3 -15 -1 -15 4 0 6 7 10 15 10 8 0 15 -2 15
-4z m185 -6 c3 -5 1 -10 -4 -10 -6 0 -11 5 -11 10 0 6 2 10 4 10 3 0 8 -4 11
-10z m-59 -33 c18 -12 34 -28 34 -35 0 -7 4 -11 8 -8 5 3 10 -14 11 -37 2 -23
3 -47 4 -53 1 -24 -26 -70 -56 -94 -25 -20 -42 -25 -90 -25 -58 0 -60 1 -99
45 -38 42 -40 48 -36 96 6 72 44 118 113 135 39 10 69 3 111 -24z m93 -75 c-1
-15 -2 -15 -6 1 -2 9 -9 14 -15 11 -7 -4 -8 -2 -4 5 10 15 26 4 25 -17z m36 8
c3 -5 -1 -10 -10 -10 -9 0 -13 5 -10 10 3 6 8 10 10 10 2 0 7 -4 10 -10z m-47
-130 c6 14 11 19 11 12 1 -7 6 -10 13 -6 7 5 9 2 5 -9 -3 -9 -1 -18 6 -20 7
-2 9 -8 4 -12 -4 -5 -13 -3 -19 3 -17 17 -28 15 -22 -3 4 -8 1 -15 -5 -15 -6
0 -11 7 -11 15 0 8 -6 13 -12 11 -7 -1 -10 -1 -5 1 4 3 7 14 8 26 1 20 2 20 9
-3 l7 -25 11 25z m18 -85 c-3 -8 -11 -15 -18 -14 -10 0 -10 2 0 6 6 2 12 14
13 26 0 12 3 16 6 9 3 -7 2 -19 -1 -27z m113 8 c0 -25 -1 -25 -8 -8 -5 11 -7
23 -4 28 8 14 13 7 12 -20z m-306 -25 c39 -46 7 -122 -52 -120 -81 2 -105 98
-34 136 33 18 61 12 86 -16z m154 -15 c-3 -10 -5 -2 -5 17 0 19 2 27 5 18 2
-10 2 -26 0 -35z m150 -110 c-3 -10 -5 -2 -5 17 0 19 2 27 5 18 2 -10 2 -26 0
-35z m-27 -73 c0 -11 -4 -20 -10 -20 -5 0 -10 9 -10 20 0 11 5 20 10 20 6 0
10 -9 10 -20z m-36 -148 c-19 -39 -24 -40 -24 -6 0 14 4 23 9 20 5 -3 12 1 15
10 4 9 9 15 11 12 3 -3 -2 -19 -11 -36z m-303 -132 c24 -13 25 -30 1 -30 -10
0 -23 -5 -30 -12 -6 -6 -15 -9 -18 -5 -4 4 4 15 17 26 35 29 2 28 -48 -1 -32
-19 -54 -23 -136 -25 -68 -1 -106 3 -125 13 -32 17 -30 17 37 4 61 -11 183 2
226 24 35 19 50 20 76 6z m-375 -55 c-3 -8 0 -15 7 -16 7 0 2 -5 -11 -11 -30
-15 -40 -2 -16 21 23 24 28 25 20 6z m304 5 c-11 -7 -12 -12 -3 -18 7 -4 -32
-8 -85 -10 -54 -1 -104 3 -112 9 -11 7 -4 9 25 4 22 -3 69 1 105 9 80 18 89
18 70 6z m-245 -10 c3 -5 -1 -10 -10 -10 -9 0 -13 5 -10 10 3 6 8 10 10 10 2
0 7 -4 10 -10z m353 -44 c9 -19 8 -25 -4 -30 -8 -3 -15 -2 -15 2 -10 54 0 69
19 28z m-118 -2 c0 -2 -15 -4 -32 -3 -27 0 -29 2 -13 8 18 8 45 4 45 -5z m64
-13 c4 -5 -3 -7 -14 -4 -23 6 -26 13 -6 13 8 0 17 -4 20 -9z m-99 -11 c3 -5
-1 -10 -9 -10 -9 0 -16 5 -16 10 0 6 4 10 9 10 6 0 13 -4 16 -10z m65 0 c12
-8 9 -10 -13 -10 -16 0 -26 4 -22 10 8 12 16 12 35 0z m-272 -27 c-10 -2 -26
-2 -35 0 -10 3 -2 5 17 5 19 0 27 -2 18 -5z m58 -11 c-10 -2 -22 0 -28 6 -6 6
0 7 19 4 21 -5 23 -7 9 -10z m167 11 c-7 -2 -21 -2 -30 0 -10 3 -4 5 12 5 17
0 24 -2 18 -5z m72 -3 c-3 -5 -13 -10 -21 -10 -8 0 -12 5 -9 10 3 6 13 10 21
10 8 0 12 -4 9 -10z m-147 -7 c-10 -2 -26 -2 -35 0 -10 3 -2 5 17 5 19 0 27
-2 18 -5z m-148 -13 c12 -8 11 -10 -7 -10 -13 0 -23 5 -23 10 0 13 11 13 30 0z
m210 0 c0 -5 -7 -10 -15 -10 -8 0 -15 5 -15 10 0 6 7 10 15 10 8 0 15 -4 15
-10z m-113 -6 c-3 -3 -12 -4 -19 -1 -8 3 -5 6 6 6 11 1 17 -2 13 -5z"/>
<path d="M3620 3471 c-14 -11 -20 -20 -14 -21 5 0 15 5 21 11 9 9 16 8 28 -5
20 -20 22 -20 22 -1 0 8 -6 15 -13 15 -7 0 -14 5 -16 11 -2 6 -14 2 -28 -10z"/>
<path d="M3590 3425 c7 -9 15 -13 17 -11 7 7 -7 26 -19 26 -6 0 -6 -6 2 -15z"/>
<path d="M3635 3430 c3 -5 10 -10 16 -10 5 0 9 5 9 10 0 6 -7 10 -16 10 -8 0
-12 -4 -9 -10z"/>
<path d="M3533 3394 c-15 -16 -18 -24 -9 -24 8 0 21 11 30 25 21 31 8 31 -21
-1z"/>
<path d="M3688 3400 c-16 -18 -14 -30 4 -30 5 0 7 4 4 9 -3 5 1 11 9 15 8 3
15 10 15 16 0 15 -13 11 -32 -10z"/>
<path d="M3635 3400 c3 -5 8 -10 11 -10 2 0 4 5 4 10 0 6 -5 10 -11 10 -5 0
-7 -4 -4 -10z"/>
<path d="M3565 3380 c-18 -19 -17 -20 1 -20 13 0 20 7 21 20 1 11 0 20 -1 20
-2 0 -11 -9 -21 -20z"/>
<path d="M3496 3344 c-9 -24 -7 -31 5 -11 6 9 14 15 20 12 5 -4 9 -1 9 4 0 17
-27 13 -34 -5z"/>
<path d="M3560 3330 c0 -5 7 -7 15 -4 8 4 15 8 15 10 0 2 -7 4 -15 4 -8 0 -15
-4 -15 -10z"/>
<path d="M3477 3260 c-3 -11 -1 -20 4 -20 5 0 9 9 9 20 0 11 -2 20 -4 20 -2 0
-6 -9 -9 -20z"/>
<path d="M3441 3254 c0 -11 3 -14 6 -6 3 7 2 16 -1 19 -3 4 -6 -2 -5 -13z"/>
<path d="M3420 3221 c0 -6 4 -13 10 -16 6 -3 7 1 4 9 -7 18 -14 21 -14 7z"/>
<path d="M3585 3220 c-3 -5 -1 -10 4 -10 6 0 11 5 11 10 0 6 -2 10 -4 10 -3 0
-8 -4 -11 -10z"/>
<path d="M3401 3154 c0 -11 3 -14 6 -6 3 7 2 16 -1 19 -3 4 -6 -2 -5 -13z"/>
<path d="M3421 3134 c0 -11 3 -14 6 -6 3 7 2 16 -1 19 -3 4 -6 -2 -5 -13z"/>
<path d="M5082 3138 c-34 -34 6 -90 48 -68 26 14 26 56 1 70 -25 13 -34 13
-49 -2z"/>
<path d="M3412 3070 c0 -14 2 -19 5 -12 2 6 2 18 0 25 -3 6 -5 1 -5 -13z"/>
<path d="M3391 3024 c0 -11 3 -14 6 -6 3 7 2 16 -1 19 -3 4 -6 -2 -5 -13z"/>
<path d="M3382 2945 c0 -16 2 -22 5 -12 2 9 2 23 0 30 -3 6 -5 -1 -5 -18z"/>
<path d="M3400 2906 c0 -8 -4 -16 -9 -18 -6 -2 -6 -17 -1 -38 4 -19 9 -33 9
-30 4 14 8 100 5 100 -2 0 -4 -6 -4 -14z"/>
<path d="M3420 2896 c0 -13 -3 -31 -6 -40 -3 -9 -2 -16 4 -16 12 0 21 69 10
76 -4 3 -8 -6 -8 -20z"/>
<path d="M4439 2863 c0 -15 -2 -36 -4 -45 -2 -10 1 -20 6 -24 5 -3 9 1 10 8 1
7 2 28 4 46 1 18 -1 35 -6 38 -5 3 -9 -7 -10 -23z"/>
<path d="M3542 2830 c0 -14 2 -19 5 -12 2 6 2 18 0 25 -3 6 -5 1 -5 -13z"/>
<path d="M3418 2825 c-4 -4 -4 -14 -1 -23 4 -10 2 -13 -5 -8 -14 9 -15 -3 -2
-24 8 -12 10 -12 15 2 8 20 2 62 -7 53z"/>
<path d="M3440 2735 c9 -10 9 -15 1 -15 -8 0 -8 -6 1 -22 21 -36 36 -49 43
-38 3 5 2 10 -3 10 -5 0 -14 11 -20 25 -10 21 -9 27 3 31 20 8 9 24 -17 24
-17 0 -18 -2 -8 -15z"/>
<path d="M3485 2710 c4 -6 11 -8 16 -5 14 9 11 15 -7 15 -8 0 -12 -5 -9 -10z"/>
<path d="M3610 2695 c0 -8 5 -15 10 -15 6 0 10 7 10 15 0 8 -4 15 -10 15 -5 0
-10 -7 -10 -15z"/>
<path d="M4360 2695 c-7 -9 -10 -18 -7 -21 3 -3 10 4 17 15 13 25 8 27 -10 6z"/>
<path d="M3550 2693 c0 -5 -7 -17 -16 -28 -11 -14 -17 -17 -22 -8 -6 9 -11 7
-19 -7 -10 -15 -9 -21 4 -32 14 -11 15 -10 9 7 -5 16 -2 21 14 21 14 0 19 -5
15 -14 -3 -8 0 -21 6 -29 7 -7 9 -17 5 -20 -4 -4 -11 -1 -16 7 -5 8 -12 12
-15 8 -3 -3 15 -27 40 -54 25 -27 46 -44 46 -39 5 40 6 55 1 50 -3 -2 -11 0
-19 6 -10 9 -13 8 -13 -2 0 -12 -2 -12 -9 0 -6 9 -6 24 0 38 6 16 5 22 -1 18
-6 -3 -10 -1 -10 4 0 14 6 14 31 0 19 -10 19 -9 9 10 -6 12 -17 21 -25 21 -20
0 -19 19 0 26 8 4 15 10 15 15 0 11 -30 12 -30 2z m50 -164 c0 -4 -7 -6 -15
-3 -8 4 -15 10 -15 15 0 4 7 6 15 3 8 -4 15 -10 15 -15z"/>
<path d="M4380 2670 c-8 -5 -12 -12 -9 -15 4 -3 12 1 19 10 14 17 11 19 -10 5z"/>
<path d="M3593 2660 c2 -8 12 -16 23 -17 13 -2 15 -1 4 4 -8 3 -19 11 -23 17
-6 7 -7 6 -4 -4z"/>
<path d="M3690 2601 c0 -16 42 -41 68 -41 19 0 21 2 10 14 -9 10 -15 10 -20 3
-4 -8 -13 -4 -26 11 -21 23 -32 28 -32 13z"/>
<path d="M3620 2565 c33 -19 49 -19 24 0 -10 8 -26 14 -34 14 -9 0 -4 -6 10
-14z"/>
<path d="M4323 2525 c0 -8 4 -15 9 -15 4 0 8 4 8 9 0 6 -4 12 -8 15 -5 3 -9
-1 -9 -9z"/>
<path d="M3761 2459 c13 -8 88 -14 78 -5 -2 2 -24 6 -48 9 -29 4 -40 2 -30 -4z"/>
<path d="M3870 2459 c0 -5 5 -7 10 -4 6 3 10 8 10 11 0 2 -4 4 -10 4 -5 0 -10
-5 -10 -11z"/>
<path d="M4421 1964 c-26 -19 -27 -46 -1 -69 17 -15 24 -16 46 -7 20 10 25 18
22 43 -4 39 -35 55 -67 33z"/>
<path d="M2699 3601 c-22 -18 -22 -19 -6 -45 20 -30 39 -33 61 -10 21 20 20
37 -2 57 -23 21 -25 21 -53 -2z"/>
<path d="M1805 3553 c-49 -5 -136 -34 -198 -66 -62 -33 -187 -140 -187 -162 0
-7 -6 -15 -14 -18 -20 -8 -81 -122 -100 -187 -24 -78 -32 -225 -16 -291 17
-74 43 -149 52 -149 5 0 8 -7 8 -15 0 -9 6 -12 18 -8 14 5 15 3 5 -7 -10 -10
-9 -19 5 -42 9 -15 20 -28 25 -28 4 0 5 -5 1 -11 -4 -7 -1 -10 7 -7 8 3 13 16
12 29 -3 23 -2 23 12 5 13 -17 13 -21 -3 -32 -15 -12 -12 -18 42 -68 54 -51
163 -121 204 -131 9 -3 42 -12 72 -21 71 -20 207 -20 290 -1 84 20 176 61 192
86 6 10 16 17 22 15 11 -4 136 116 136 131 0 4 7 13 16 19 21 16 24 77 4 83
-11 3 -12 2 -2 -4 8 -6 10 -20 5 -44 l-7 -34 -6 29 c-3 16 -11 31 -19 34 -8 3
-11 0 -8 -5 3 -5 -3 -10 -14 -10 -11 -1 -17 2 -14 8 4 5 -1 9 -10 9 -10 0 -14
-5 -10 -12 4 -7 -2 -2 -13 12 -26 32 -33 67 -15 74 8 3 13 11 12 18 -2 13 2
26 22 76 5 13 9 32 9 42 0 11 5 20 10 20 6 0 10 5 10 11 0 5 -4 8 -9 5 -7 -5
-21 103 -22 168 0 11 -8 25 -17 32 -11 9 -12 13 -4 14 6 0 12 4 12 10 0 5 -21
-2 -46 -15 -55 -29 -93 -31 -140 -9 -50 24 -74 63 -74 121 0 76 34 120 114
148 35 12 46 35 17 35 -13 0 -19 -5 -15 -14 7 -17 -48 -29 -58 -13 -4 6 -10 8
-15 4 -4 -5 -1 -12 6 -16 9 -6 10 -11 2 -15 -6 -4 -11 -2 -11 3 0 16 -18 13
-22 -3 -3 -13 -6 -13 -22 0 -19 14 -19 14 1 14 13 0 24 8 28 20 3 11 11 20 17
20 6 0 9 3 5 6 -9 10 16 32 30 27 7 -3 13 -1 13 3 0 5 4 15 9 22 7 11 17 9 50
-12 22 -15 41 -28 41 -31 0 -5 -50 15 -67 27 -6 5 -14 5 -17 0 -3 -6 13 -17
36 -27 33 -13 39 -19 27 -26 -12 -8 -12 -10 1 -8 31 3 50 -1 50 -12 0 -6 -9
-9 -20 -6 -29 7 -25 2 15 -22 27 -16 35 -17 35 -6 0 7 5 17 11 20 14 9 37 -24
32 -46 -3 -9 1 -20 8 -24 8 -6 10 -4 4 5 -4 7 -2 15 4 19 19 12 -52 83 -74 75
-14 -6 -17 -4 -12 8 13 36 -230 160 -279 141 -8 -3 -21 0 -28 6 -13 11 -82 12
-171 4z m125 -24 c0 -6 -4 -7 -10 -4 -5 3 -10 11 -10 16 0 6 5 7 10 4 6 -3 10
-11 10 -16z m-113 5 c-3 -3 -12 -4 -19 -1 -8 3 -5 6 6 6 11 1 17 -2 13 -5z
m244 -14 c5 0 9 -4 9 -10 0 -16 -26 -12 -41 7 -12 15 -12 16 4 10 10 -4 23 -7
28 -7z m60 -38 c-13 -4 -41 16 -41 29 0 5 12 2 26 -8 15 -9 21 -19 15 -21z
m-282 24 c-2 -2 -29 -6 -59 -9 -34 -3 -47 -2 -35 3 19 8 103 14 94 6z m174 -8
c15 -7 27 -16 27 -20 0 -11 -2 -10 -38 8 -49 24 -39 35 11 12z m-214 -33 c-9
-10 -19 -11 -29 -5 -12 8 -11 10 8 10 12 0 22 5 22 12 0 6 3 8 7 4 4 -3 0 -13
-8 -21z m259 -12 c-10 -2 -28 -2 -40 0 -13 2 -5 4 17 4 22 1 32 -1 23 -4z m47
-3 c-3 -5 -10 -10 -16 -10 -5 0 -9 5 -9 10 0 6 7 10 16 10 8 0 12 -4 9 -10z
m-280 -10 c3 -6 -4 -10 -17 -10 -18 0 -20 2 -8 10 19 12 18 12 25 0z m62 -6
c-3 -3 -12 -4 -19 -1 -8 3 -5 6 6 6 11 1 17 -2 13 -5z m197 -12 c-1 -7 -2 -16
-2 -22 -1 -5 -15 -7 -31 -4 -16 4 -32 1 -35 -5 -10 -16 -68 -13 -105 5 -18 9
-43 14 -56 11 -14 -2 -22 0 -19 4 3 5 42 9 87 10 57 1 74 3 57 9 -17 5 -4 7
40 6 42 -2 65 -7 64 -14z m-487 -8 c-3 -3 -12 -4 -19 -1 -8 3 -5 6 6 6 11 1
17 -2 13 -5z m33 -4 c0 -5 -2 -10 -4 -10 -3 0 -8 5 -11 10 -3 6 -1 10 4 10 6
0 11 -4 11 -10z m156 -35 c-27 -21 -52 -21 -34 0 7 8 22 14 33 14 20 0 20 0 1
-14z m518 -9 c-3 -9 -10 -13 -15 -10 -5 3 -3 11 4 19 15 16 19 13 11 -9z
m-634 -35 c0 -12 -20 -25 -27 -18 -7 7 6 27 18 27 5 0 9 -4 9 -9z m-170 -5 c0
-3 -4 -8 -10 -11 -5 -3 -10 -1 -10 4 0 6 5 11 10 11 6 0 10 -2 10 -4z m97 -12
c-3 -3 -12 -4 -19 -1 -8 3 -5 6 6 6 11 1 17 -2 13 -5z m13 -28 c-19 -17 -70
-30 -70 -17 0 12 37 24 50 16 5 -3 10 -1 10 4 0 6 5 11 12 11 8 0 8 -4 -2 -14z
m-200 -10 c0 -3 -4 -8 -10 -11 -5 -3 -10 -1 -10 4 0 6 5 11 10 11 6 0 10 -2
10 -4z m116 -67 c1 -25 -1 -28 -8 -15 -5 10 -7 24 -4 32 8 21 11 17 12 -17z
m-101 -28 c3 -5 1 -12 -5 -16 -5 -3 -10 1 -10 9 0 18 6 21 15 7z m-83 -23 c-7
-7 -12 -8 -12 -2 0 14 12 26 19 19 2 -3 -1 -11 -7 -17z m138 -42 c-6 -6 -10
-23 -10 -40 0 -16 -3 -27 -6 -23 -4 3 -3 27 1 53 5 33 9 43 15 33 6 -8 5 -18
0 -23z m-137 5 c-5 -3 -14 -17 -20 -31 -9 -19 -12 -20 -12 -7 -1 23 21 57 32
50 5 -3 5 -8 0 -12z m4 -43 c-3 -8 -6 -5 -6 6 -1 11 2 17 5 13 3 -3 4 -12 1
-19z m816 -10 c47 -25 61 -74 31 -116 -21 -31 -85 -31 -114 0 -30 32 -26 71
11 102 35 29 41 31 72 14z m-803 -38 c0 -5 -13 -8 -30 -8 -16 1 -30 6 -30 13
0 7 11 10 30 7 17 -2 30 -8 30 -12z m87 -2 c-3 -8 -6 -5 -6 6 -1 11 2 17 5 13
3 -3 4 -12 1 -19z m-100 -80 c-2 -13 -4 -5 -4 17 -1 22 1 32 4 23 2 -10 2 -28
0 -40z m-50 -35 c-2 -16 -4 -3 -4 27 0 30 2 43 4 28 2 -16 2 -40 0 -55z m32
-32 c2 -54 -6 -32 -12 34 -4 39 -3 50 2 30 5 -16 9 -45 10 -64z m51 54 c0 -8
-4 -15 -10 -15 -5 0 -10 7 -10 15 0 8 5 15 10 15 6 0 10 -7 10 -15z m79 -82
c1 -7 -3 -13 -9 -13 -5 0 -10 11 -10 25 0 14 -6 25 -12 25 -9 0 -8 4 2 10 15
9 26 -9 29 -47z m-93 17 c8 0 14 -4 14 -9 0 -6 -9 -9 -20 -8 -13 1 -20 8 -19
22 0 11 3 14 6 8 2 -7 11 -13 19 -13z m126 -140 c16 -28 16 -30 0 -30 -28 0
-42 14 -35 38 7 29 15 28 35 -8z m-52 -19 c0 -6 -4 -13 -10 -16 -5 -3 -10 1
-10 9 0 9 5 16 10 16 6 0 10 -4 10 -9z m140 -86 c0 -11 -17 -4 -38 16 -12 11
-30 19 -40 18 -36 -3 -72 1 -72 10 0 5 20 6 45 3 29 -3 45 -1 45 6 0 6 14 -2
30 -18 17 -16 30 -32 30 -35z m715 15 c-4 -6 -16 -9 -27 -7 -22 6 -58 -20 -58
-42 0 -10 7 -8 25 9 14 13 28 21 31 17 10 -9 -6 -28 -18 -21 -8 5 -9 1 -5 -10
4 -9 3 -15 -2 -12 -5 3 -12 -1 -15 -10 -5 -13 -9 -14 -21 -4 -13 10 -15 8 -15
-14 0 -30 -5 -32 -26 -12 -7 8 -19 17 -26 20 -10 5 -9 8 2 12 8 4 34 26 57 48
22 23 46 40 52 38 10 -3 16 11 12 33 -1 6 8 0 20 -11 12 -13 18 -27 14 -34z
m-898 -22 c-3 -8 -6 -5 -6 6 -1 11 2 17 5 13 3 -3 4 -12 1 -19z m135 2 c13
-12 33 -19 51 -18 18 2 32 -4 38 -15 6 -9 18 -17 27 -17 15 0 15 -2 2 -10 -8
-5 -23 -7 -32 -4 -10 3 -18 1 -18 -5 0 -6 -7 -11 -15 -11 -8 0 -15 7 -15 15 0
20 -39 20 -46 0 -6 -16 -24 -11 -24 6 0 6 5 7 10 4 6 -3 10 -2 10 4 0 5 -5 13
-11 17 -8 4 -7 9 2 15 11 7 10 11 -6 23 -12 9 -15 15 -7 16 7 0 23 -9 34 -20z
m786 -31 c4 -24 3 -24 -12 -4 -19 24 -20 38 -3 33 6 -3 13 -15 15 -29z m46
-27 c-8 -8 -18 -11 -22 -7 -4 4 -1 10 6 12 6 3 12 12 12 21 0 14 2 14 9 3 6
-9 4 -19 -5 -29z m-87 -45 c-8 -12 -20 -23 -28 -25 -8 -3 -4 6 8 20 19 20 21
27 10 38 -10 12 -9 12 6 1 15 -12 16 -17 4 -34z m49 21 c1 -9 -13 -31 -32 -49
-19 -18 -34 -30 -34 -26 0 3 11 17 24 30 17 18 23 31 19 47 -4 16 -2 21 7 18
7 -2 14 -11 16 -20z m-206 2 c0 -5 -7 -10 -15 -10 -8 0 -15 5 -15 10 0 6 7 10
15 10 8 0 15 -4 15 -10z m124 -14 c-3 -9 -10 -16 -15 -16 -14 0 -11 28 4 33
16 6 19 3 11 -17z m-593 -6 c15 0 31 5 34 10 10 16 35 12 29 -5 -7 -17 0 -19
25 -6 10 6 23 6 32 0 11 -7 9 -9 -8 -9 -13 0 -23 -4 -23 -10 0 -5 5 -10 10
-10 6 0 10 -6 10 -14 0 -8 6 -17 13 -19 7 -3 4 -6 -6 -6 -11 -1 -21 8 -24 19
-6 22 -37 35 -55 24 -22 -14 -88 -11 -88 3 0 7 -5 13 -11 13 -8 0 -7 5 1 15 9
11 16 13 24 5 5 -5 22 -10 37 -10z m-83 -70 c4 -13 2 -12 -14 0 -10 9 -31 22
-46 30 -16 7 -28 17 -28 21 0 12 83 -36 88 -51z m17 40 c3 -5 2 -10 -4 -10 -5
0 -13 5 -16 10 -3 6 -2 10 4 10 5 0 13 -4 16 -10z m259 2 c2 -4 -11 -6 -30 -4
-19 2 -34 6 -34 8 0 8 59 4 64 -4z m171 -13 c-10 -15 -25 -10 -19 6 4 8 10 12
15 9 5 -3 7 -10 4 -15z m-113 -1 c-9 -9 -15 -9 -24 0 -9 9 -7 12 12 12 19 0
21 -3 12 -12z m338 -8 c0 -6 -11 -8 -27 -4 -16 4 -25 3 -21 -1 4 -4 0 -14 -10
-21 -9 -7 -17 -20 -17 -30 0 -10 -8 -20 -17 -22 -10 -2 -18 1 -18 7 0 6 7 8
15 5 8 -4 15 -1 15 5 0 6 -6 11 -12 12 -10 0 -10 2 0 6 10 4 10 8 0 20 -11 14
-10 15 10 9 12 -4 22 -4 21 1 -3 19 3 23 31 23 17 0 30 -5 30 -10z m-127 -17
c-7 -2 -19 -2 -25 0 -7 3 -2 5 12 5 14 0 19 -2 13 -5z m-463 -13 c0 -5 -4 -10
-10 -10 -5 0 -10 5 -10 10 0 6 5 10 10 10 6 0 10 -4 10 -10z m6 -19 c15 12 16
11 9 -10 -6 -21 -5 -23 11 -17 15 5 16 4 7 -5 -8 -8 -19 -7 -42 7 -17 10 -31
22 -31 27 0 5 7 4 15 -3 12 -10 18 -10 31 1z m194 1 c0 -4 -21 -5 -46 -3 -32
2 -44 0 -40 -8 5 -7 1 -9 -8 -5 -9 3 -13 10 -10 15 6 11 104 12 104 1z m257 2
c-3 -3 -12 -4 -19 -1 -8 3 -5 6 6 6 11 1 17 -2 13 -5z m98 -4 c-3 -5 -10 -10
-16 -10 -5 0 -9 5 -9 10 0 6 7 10 16 10 8 0 12 -4 9 -10z m-217 -7 c-10 -2
-28 -2 -40 0 -13 2 -5 4 17 4 22 1 32 -1 23 -4z m-155 -20 c-7 -2 -19 -2 -25
0 -7 3 -2 5 12 5 14 0 19 -2 13 -5z m44 -19 c-3 -3 -12 -4 -19 -1 -8 3 -5 6 6
6 11 1 17 -2 13 -5z m80 -20 c-3 -3 -12 -4 -19 -1 -8 3 -5 6 6 6 11 1 17 -2
13 -5z"/>
<path d="M2130 3426 c0 -2 7 -6 15 -10 8 -3 15 -1 15 4 0 6 -7 10 -15 10 -8 0
-15 -2 -15 -4z"/>
<path d="M2130 3400 c0 -5 5 -10 11 -10 5 0 7 5 4 10 -3 6 -8 10 -11 10 -2 0
-4 -4 -4 -10z"/>
<path d="M2320 3340 c0 -5 5 -10 11 -10 5 0 7 5 4 10 -3 6 -8 10 -11 10 -2 0
-4 -4 -4 -10z"/>
<path d="M2325 3305 c5 -11 11 -45 15 -75 l7 -55 1 55 c1 37 -4 62 -15 75
l-16 20 8 -20z"/>
<path d="M2380 3300 c0 -5 5 -10 11 -10 5 0 7 5 4 10 -3 6 -8 10 -11 10 -2 0
-4 -4 -4 -10z"/>
<path d="M2410 3266 c0 -13 42 -78 47 -72 3 2 -7 22 -21 43 -14 20 -26 34 -26
29z"/>
<path d="M2371 3224 c0 -11 3 -14 6 -6 3 7 2 16 -1 19 -3 4 -6 -2 -5 -13z"/>
<path d="M2400 3226 c0 -16 44 -88 48 -77 2 7 -3 20 -12 30 -9 10 -16 23 -16
29 0 6 -4 14 -10 17 -5 3 -10 4 -10 1z"/>
<path d="M2360 3170 c0 -5 5 -10 10 -10 6 0 10 5 10 10 0 6 -4 10 -10 10 -5 0
-10 -4 -10 -10z"/>
<path d="M2330 3164 c0 -7 27 -34 34 -34 13 0 5 16 -14 28 -11 7 -20 10 -20 6z"/>
<path d="M2468 3138 c-3 -7 1 -19 8 -26 11 -10 14 -10 14 0 0 7 -4 19 -9 26
-7 11 -9 11 -13 0z"/>
<path d="M2346 3072 c5 -64 6 -66 14 -32 6 24 5 39 -3 47 -10 10 -12 7 -11
-15z"/>
<path d="M742 3048 c-30 -30 -1 -75 43 -64 22 6 26 11 23 39 -2 26 -8 33 -28
35 -14 2 -31 -3 -38 -10z"/>
<path d="M2382 3040 c0 -14 2 -19 5 -12 2 6 2 18 0 25 -3 6 -5 1 -5 -13z"/>
<path d="M2493 3045 c-3 -9 -3 -18 -1 -21 3 -3 8 4 11 16 6 23 -1 27 -10 5z"/>
<path d="M2366 2971 c-4 -7 -5 -15 -2 -18 9 -9 19 4 14 18 -4 11 -6 11 -12 0z"/>
<path d="M2502 2924 c-1 -34 -4 -77 -7 -95 -5 -31 -5 -32 5 -10 6 14 9 57 7
95 l-3 71 -2 -61z"/>
<path d="M2480 2875 c0 -19 -4 -35 -10 -35 -5 0 -10 -11 -10 -25 0 -14 4 -25
9 -25 5 0 11 -7 13 -17 2 -9 4 18 5 60 1 43 0 77 -3 77 -2 0 -4 -16 -4 -35z"/>
<path d="M2386 2815 c-9 -26 -7 -32 5 -12 6 10 9 21 6 23 -2 3 -7 -2 -11 -11z"/>
<path d="M2347 2790 c-3 -11 -1 -20 4 -20 5 0 9 9 9 20 0 11 -2 20 -4 20 -2 0
-6 -9 -9 -20z"/>
<path d="M2430 2760 c0 -6 7 -13 15 -16 8 -4 15 -11 15 -16 0 -6 -7 -8 -15 -4
-16 6 -19 -15 -6 -48 7 -18 8 -18 14 -3 4 10 1 17 -6 17 -7 0 -4 5 5 11 10 5
23 19 29 31 6 11 7 18 1 14 -5 -3 -15 1 -22 9 -14 17 -30 20 -30 5z"/>
<path d="M2336 2718 c5 -8 2 -9 -10 -5 -13 5 -17 2 -14 -11 4 -22 70 -29 86
-9 9 11 7 13 -11 13 -13 -1 -21 4 -19 12 1 6 -7 12 -19 12 -13 0 -18 -4 -13
-12z"/>
<path d="M1452 1908 c-7 -7 -12 -21 -12 -33 0 -12 5 -26 12 -33 27 -27 78 -7
78 29 0 39 -52 63 -78 37z"/>
</g>
</svg>
