<svg width="300" height="300" viewBox="0 0 300 300" version="1.1" xmlns="http://www.w3.org/2000/svg"><title>owl-happy</title><g stroke="none" stroke-width="1" fill="none" fill-rule="evenodd"><g><g transform="translate(39 27)"><path d="M74.9 0c20.4 0 25.3 27.1 65.5 27.1 25.4 0 26.8-10.5 38.5-10.5 4.8 0 7.5 9.2 7.5 15.3 0 24.1-6.2 51.1-2.2 51.1 5.3 0 26.7-13.8 32.2-13.8 5.3 0 5.1 4.1 5.1 6.4 0 2.3 1.6 42.3-52.5 73.8-2.4 1.4-13.8 51.4-54.3 51.4-27 0-47.6-14.6-55.4-49.6C57.7 144 0 121.2 0 71.1c0-11 2.8-17 7-17C17.6 54.1 40.4 72 50.2 72c8.5 0 7.1-18.5 7.1-24.1C57.5 42.2 57 0 74.9 0z" fill="#78C800"/><path d="M168.8 35.6c-3.7 0-4.6 1.9-5.9.7-.6-.6 2.6-2 2.6-2.6 0-.3-.5-.2-1.1-.2-3.9 0-11.5 5.6-12.5 5.6-.5 0-1.2.1-1.2-.6 0-1.6 5.4-3 1.7-3s-9.3 4.8-15 4.8c-11.9 0-21.4-9.3-21.4-7 0 .8 1.4 2.1 2.3 3.8 0 0 .5 2.5-.5 1.5C106.9 27.7 96 25.1 96 25.1s-.8 0-.8.4c0 1.2 2.4 2.9 2.4 3.4s-.3.8-.8.8c-2.3 0-4-4.4-13.3-4.4-14.1 0-17.9 22.1-17.9 40.3 0 25.7 16.6 33.9 30.3 33.9 10.9 0 22.5-6.4 27.4-15.8l14.5 1.1s7.1 13.4 19.8 13.4c12 0 22.4-7.6 22.4-33.8-.3-27.6-7.5-28.8-11.2-28.8z" fill="#8EE000"/><ellipse fill="#FFF" cx="94.2" cy="66.6" rx="18.5" ry="22.5"/><path d="M172.9 70.9c-.6 10.9-8 19.6-16.5 19.3-8.5-.3-15-9.4-14.4-20.3.6-10.9 8-19.6 16.5-19.3 8.6.2 15 9.3 14.4 20.3z" fill="#FFF"/><ellipse fill="#3F3F3F" cx="93.8" cy="66.6" rx="10.2" ry="12.4"/><ellipse fill="#FFF" cx="87.2" cy="58.8" rx="4.8" ry="5.1"/><path d="M166 70.9c-.5 6.4-4.8 11.4-9.6 11.2-4.8-.2-8.4-5.6-7.9-12.1.5-6.4 4.8-11.4 9.6-11.2 4.8.2 8.3 5.6 7.9 12.1z" fill="#3F3F3F"/><path d="M117.8 92.5s-3 24.9 5.2 24.7c8.1-.2 7.8-12.1 7.7-12.2 0-.1-12.9-12.5-12.9-12.5z" fill="#71B200"/><path d="M155.9 63.4c.1 2.6-1.7 4.8-4.1 4.9-2.3.1-4.3-2-4.4-4.6-.1-2.6 1.7-4.8 4.1-4.9 2.3-.1 4.3 2 4.4 4.6z" fill="#FFF"/><path d="M212.4 107.8c-10.7 15.6-33.1 27.9-36.8 27.9-4.2 0-1.3-4.4-4.3-4.4-2.7 0-3.2 46.7-51.1 46.7-53.8 0-52.6-55.6-57.7-55.6-3.8 0-1.3 8.1-5.4 8.1-13.6 0-49.8-27.5-55.8-47 8.4 41.5 56.6 61 58.1 67.6 7.9 35 28.4 49.6 55.4 49.6 40.4 0 51.9-50 54.3-51.4 22.4-13 35.6-28.1 43.3-41.5z" fill="#71B200"/><path d="M117.8 90s-1.8 18.2 7.1 18.2 13.3-7.3 13.3-13.8c0-6.5-20.4-4.4-20.4-4.4z" fill="#F49000"/><path d="M131.1 79.2c6.4 0 11.3 7.5 11.3 14.9s-6 15-8 15-16.6-13.6-16.6-19.4c0-5.8 5.5-10.5 13.3-10.5z" fill="#FFC200"/><ellipse fill="#FFF3B8" transform="rotate(-176.834 130.965 83.56)" cx="130.965" cy="83.56" rx="4.3" ry="2.3"/><path d="M106.9 207.4c6.9-.4 11.9 1.1 12.2 7.3.3 6.2-8.1 7.8-12.6 8.1-4.5.2-9.6-1.8-9.8-6.3-.2-4.4 3.9-8.7 10.2-9.1zM149.4 194.7c6.6-.3 6.7 6.8 6.8 7.4 0 .6.7 7.5-10.9 8.1-7.3.4-7.1-2.9-7.2-4.5 0-1.7 2.9-10.5 11.3-11z" fill="#D98500"/><ellipse fill="#E0E0E0" cx="115" cy="241.4" rx="59.6" ry="5.6"/></g></g></g></svg>