<svg width="300" height="300" viewBox="0 0 300 300" version="1.1" xmlns="http://www.w3.org/2000/svg"><title>owl-standard</title><g stroke="none" stroke-width="1" fill="none" fill-rule="evenodd"><g><g transform="translate(66 43)"><ellipse fill="#E0E0E0" transform="rotate(-179.857 91.109 206.796)" cx="91.109" cy="206.796" rx="73" ry="7.1"/><path d="M118.8 190.6c6.6.4 6 7.5 5.9 8.1 0 .6-.1 7.5-11.7 6.8-7.3-.4-6.7-3.7-6.7-5.3.2-1.5 4.2-10 12.5-9.6z" fill="#D98500"/><path d="M48.6 0c16.3 0 31.3 26.3 63.6 26.4 25 .1 28.7-12 40.1-12 9.4 0 8.5 18.1 8.5 19.2 0 9.4-3.7 40.2-3.7 43.1 0 14.6 11.4 59.7 11.3 75.4-.1 22.1-11.4 31.4-22.4 31.4-8.4 0-9.9-10.7-12-10.7-2.1 0-11.4 27.2-46.5 27.1-35.1-.1-41.9-31.1-46.3-31.2-3.6 0-6.1 13.3-28.9 13.2-12.7 0-11.7-7.8-11.7-9.3 0-18.7 30.9-90.7 30.9-102.2s-.7-17-.7-21.9c0-4.9-.4-48.5 17.8-48.5z" fill="#78C800"/><path d="M165.6 169.1c-.4.2-.8.2-1.3.2-2.7 0-7.5-37.6-15.3-37.6-5 0-5.7 45.2-53.1 45.1-49.2-.1-37-43.5-41.1-43.6-3 0-8.6 46.3-45.1 46.2-6.1 0-8.2-2.9-9-5.3.1 2.8 1.4 7.8 11.7 7.9 22.8.1 25.3-13.2 28.9-13.2 4.4 0 11.1 31.1 46.3 31.2 35.1.1 44.4-27.1 46.5-27.1 2.1 0 3.6 10.7 12 10.7 7.7 0 15.4-4.5 19.5-14.5z" fill="#71B200"/><path d="M69 193.9c7.3.5 12.2 2.7 11.8 9.3-.4 6.6-9.5 7.1-14.2 6.7-4.7-.4-9.7-3.1-9.4-7.8.3-4.7 5.2-8.7 11.8-8.2z" fill="#D98500"/><path d="M143.2 34.3c-3.7.1-4.6 2-5.9.8-.6-.6 2.5-2 2.5-2.6 0-.3-.5-.2-1.1-.2-3.9.1-11.4 5.9-12.5 5.9-.5 0-1.3.1-1.3-.6 0-1.6 5.4-3.1 1.6-3-3.8.1-9.2 5-15 5.1-11.9.2-21.7-9-21.7-6.7 0 .8 1.4 2.1 2.3 3.8 0 0 .6 2.5-.4 1.6-11.1-10.8-22.1-13.2-22.1-13.2s-.8 0-.8.4c0 1.3 2.4 2.9 2.4 3.4s-.3.8-.8.8c-2.3 0-4.1-4.4-13.4-4.2-14.1.2-17.6 22.6-17.3 40.8.5 25.9 17.3 33.8 31 33.6 10.9-.2 22.5-6.8 27.3-16.4l14.6.9s7.4 13.4 20.2 13.2c12-.2 22.4-8 21.9-34.4-.5-28-7.8-29.1-11.5-29z" fill="#8EE000"/><ellipse fill="#FFF" transform="rotate(178.989 68.677 66.969)" cx="68.677" cy="66.969" rx="18.599" ry="22.599"/><path d="M147.5 69c-.4 11.1-7.5 19.9-15.9 19.8-8.4-.1-14.9-9.2-14.5-20.3.4-11.1 7.5-19.9 15.9-19.8 8.4.1 14.9 9.2 14.5 20.3z" fill="#FFF"/><ellipse fill="#3F3F3F" transform="rotate(178.989 68.276 66.969)" cx="68.276" cy="66.969" rx="10.2" ry="12.399"/><ellipse fill="#FFF" transform="rotate(178.989 61.474 59.17)" cx="61.474" cy="59.169" rx="4.8" ry="5.2"/><path d="M140.6 69.1c-.3 6.5-4.5 11.7-9.3 11.5-4.8-.1-8.4-5.5-8-12.1.3-6.5 4.5-11.7 9.3-11.5 4.8.2 8.4 5.6 8 12.1z" fill="#3F3F3F"/><path d="M93.1 91.5s-3 24.8 5.1 24.7c8.1-.2 7.8-12 7.8-12.2-.1-.1-12.9-12.5-12.9-12.5z" fill="#71B200"/><path d="M130.5 61.7c.1 2.6-1.6 4.9-3.9 5-2.3.1-4.3-1.9-4.4-4.6-.1-2.7 1.6-4.9 3.9-5 2.4-.1 4.3 2 4.4 4.6z" fill="#FFF"/><path d="M92.9 90s-1.4 18.3 7.5 18.2c8.9-.1 13.2-7.5 13.1-14.1-.2-6.6-20.6-4.1-20.6-4.1z" fill="#F49000"/><path d="M106.1 78.9c6.5-.1 11.5 7.3 11.6 14.8.1 7.4-5.8 15.1-7.8 15.2-2 .1-17-13.4-17.1-19.2-.1-5.9 5.4-10.7 13.3-10.8z" fill="#FFC200"/><ellipse fill="#FFF3B8" transform="rotate(-177.845 105.921 83.285)" cx="105.921" cy="83.285" rx="4.3" ry="2.3"/></g></g></g></svg>